<svg xmlns="http://www.w3.org/2000/svg" viewBox="0 0 1000 300">
  <path fill="#0A4B6C" d="M35 130c-8 0-15-3-21-9-5-5-9-12-9-20 0-8 4-15 9-21 6-5 13-8 21-8h155c4 0 8 1 12 3l25 13h112c8 0 15 3 21 8 5 6 8 13 8 21 0 8-3 15-8 20-6 6-13 9-21 9H211l-25 13c-4 2-8 3-12 3H35zm0-90h-5c-8 0-15-3-21-8-5-6-9-13-9-21 0-8 4-15 9-20 6-6 13-9 21-9h155c4 0 8 1 12 3l25 13h112c8 0 15 3 21 9 5 5 8 12 8 20s-3 15-8 21c-6 5-13 8-21 8H211l-25 13c-4 2-8 3-12 3H35zm0-90h-5c-8 0-15-3-21-8-5-6-9-13-9-21 0-8 4-15 9-20 6-6 13-9 21-9h155c4 0 8 1 12 3l25 13h112c8 0 15 3 21 9 5 5 8 12 8 20s-3 15-8 21c-6 5-13 8-21 8H211l-25 13c-4 2-8 3-12 3H35z"/>
  <path fill="#0A4B6C" d="M542 130c-25 0-48-5-69-15-21-9-39-22-54-38-15-17-27-36-35-58-8-23-12-47-12-72 0-26 4-50 12-72 8-23 20-42 35-58 15-16 33-29 54-38 21-10 44-15 69-15 20 0 38 3 55 8 17 6 32 13 45 23 13 9 24 20 33 32 9 13 16 26 20 40 5 14 7 28 7 42 0 15-2 29-7 42-4 14-11 27-20 39-9 13-20 23-33 33-13 9-28 17-45 22-17 6-35 8-55 8zm0-60c14 0 27-3 39-8 12-6 22-13 30-23 9-9 15-20 20-33 5-12 7-26 7-39 0-14-2-27-7-40-5-12-11-23-20-33-8-9-18-16-30-22-12-5-25-8-39-8-15 0-28 3-40 8-12 6-22 13-31 22-8 10-15 21-19 33-5 13-7 26-7 40 0 13 2 27 7 39 4 13 11 24 19 33 9 10 19 17 31 23 12 5 25 8 40 8zm183-245h60v245c0 10 2 17 7 22 4 5 11 8 20 8h15v60h-25c-13 0-25-2-36-6-10-4-19-10-26-17-7-8-12-17-16-27-3-11-5-22-5-34V-175h-54v-60h54v-90h60v90zm126 0h60v305h-60V-175zm0-120h60v60h-60V-295zm231 425c-19 0-37-3-54-10-17-6-32-15-45-27-13-11-23-25-30-41-8-16-12-34-12-54 0-19 4-37 12-53 7-16 17-30 30-42 13-11 28-20 45-27 17-6 35-9 54-9 19 0 37 3 54 9 17 7 32 16 45 27 13 12 23 26 30 42 8 16 12 34 12 53 0 20-4 38-12 54-7 16-17 30-30 41-13 12-28 21-45 27-17 7-35 10-54 10zm0-60c10 0 19-2 28-5 8-4 16-9 22-15 6-7 11-14 14-23 4-9 5-18 5-29 0-10-1-20-5-28-3-9-8-17-14-23-6-7-14-12-22-16-9-3-18-5-28-5-10 0-20 2-28 5-9 4-16 9-22 16-7 6-11 14-15 23-3 8-5 18-5 28 0 11 2 20 5 29 4 9 8 16 15 23 6 6 13 11 22 15 8 3 18 5 28 5zm183-245h57v35h1c4-12 12-22 24-30 11-7 24-11 38-11 4 0 7 0 10 1 4 0 7 1 10 2v60c-4-1-9-2-14-3-5 0-10-1-15-1-10 0-19 2-27 6-8 3-15 8-20 15-6 6-10 14-13 22-3 9-4 18-4 29v180h-60V-175h13zm173 0h57v35h1c4-12 12-22 24-30 11-7 24-11 38-11 4 0 7 0 10 1 4 0 7 1 10 2v60c-4-1-9-2-14-3-5 0-10-1-15-1-10 0-19 2-27 6-8 3-15 8-20 15-6 6-10 14-13 22-3 9-4 18-4 29v180h-60V-175h13zm173-120h60v245c0 10 2 17 7 22 4 5 11 8 20 8h15v60h-25c-13 0-25-2-36-6-10-4-19-10-26-17-7-8-12-17-16-27-3-11-5-22-5-34V-295zm126 120h60v35h1c7-13 18-24 32-32 15-8 30-12 47-12 17 0 32 3 45 10 13 6 24 15 32 26 9 11 15 24 19 39 4 15 6 31 6 48v191h-60V-61c0-10-1-19-3-28-2-8-5-16-10-22-4-6-10-11-17-14-7-4-15-5-25-5-10 0-19 2-27 5-7 4-14 9-19 15-5 7-9 14-11 23-3 9-4 18-4 29v188h-60V-175h-6z"/>
  <text x="270" y="280" font-family="Arial" font-size="36" fill="#0A4B6C">SHOP WITH PURPOSE, SERVE WITH LOVE</text>
</svg>